<?xml version="1.0" encoding="iso-8859-1"?>
<!-- Generator: Adobe Illustrator 18.0.0, SVG Export Plug-In . SVG Version: 6.00 Build 0)  -->
<!DOCTYPE svg PUBLIC "-//W3C//DTD SVG 1.1//EN" "http://www.w3.org/Graphics/SVG/1.1/DTD/svg11.dtd">
<svg xmlns="http://www.w3.org/2000/svg" xmlns:xlink="http://www.w3.org/1999/xlink" version="1.1" id="Capa_1" x="0px" y="0px" viewBox="0 0 483.527 483.527" style="enable-background:new 0 0 483.527 483.527;" xml:space="preserve" width="512px" height="512px">
<g>
	<path d="M261.67,296.581v-180.47h-49.168v180.462c-19.719,9.275-33.468,29.171-33.468,52.41c0,32.06,25.985,58.044,58.045,58.044   c32.058,0,58.051-25.985,58.051-58.044C295.13,325.752,281.389,305.858,261.67,296.581z" fill="#FFFFFF"/>
	<path d="M364.786,157.086c9.051,0,16.389-7.338,16.389-16.39c0-9.051-7.338-16.39-16.389-16.39h-35.782V91.927   c0-0.136-0.015-0.264-0.015-0.4h35.797c9.051,0,16.389-7.339,16.389-16.39c0-9.051-7.338-16.39-16.389-16.39h-42.071   C309.368,24.424,276.06,0,237.079,0c-50.69,0-91.929,41.238-91.929,91.927v158.431c-27.289,25.465-42.799,60.949-42.799,98.441   c0,74.291,60.445,134.728,134.735,134.728c74.281,0,134.719-60.437,134.719-134.728c0-37.5-15.51-72.984-42.8-98.449v-27.706   h35.782c9.051,0,16.389-7.339,16.389-16.39c0-9.051-7.338-16.39-16.389-16.39h-35.782v-32.779H364.786z M341.586,348.799   c0,57.628-46.881,104.509-104.5,104.509c-57.628,0-104.516-46.88-104.516-104.509c0-30.945,13.637-60.132,37.405-80.075   c3.417-2.865,5.395-7.106,5.395-11.572V91.927c0-34.028,27.681-61.709,61.709-61.709c34.027,0,61.708,27.681,61.708,61.709v165.217   c0,4.466,1.977,8.707,5.395,11.572C327.95,288.659,341.586,317.854,341.586,348.799z" fill="#FFFFFF"/>
</g>
<g>
</g>
<g>
</g>
<g>
</g>
<g>
</g>
<g>
</g>
<g>
</g>
<g>
</g>
<g>
</g>
<g>
</g>
<g>
</g>
<g>
</g>
<g>
</g>
<g>
</g>
<g>
</g>
<g>
</g>
</svg>
