<?xml version="1.0" encoding="iso-8859-1"?>
<!-- Generator: Adobe Illustrator 19.0.0, SVG Export Plug-In . SVG Version: 6.00 Build 0)  -->
<svg xmlns="http://www.w3.org/2000/svg" xmlns:xlink="http://www.w3.org/1999/xlink" version="1.1" id="Capa_1" x="0px" y="0px" viewBox="0 0 512 512" style="enable-background:new 0 0 512 512;" xml:space="preserve" width="512px" height="512px">
<g>
	<g>
		<path d="M432,80c-26.464,0-48,21.536-48,48c0,2.048,0.352,3.968,0.608,5.952l-79.488,39.456C296.512,165.152,284.864,160,272,160    c-26.464,0-48,21.536-48,48c0,5.472,1.12,10.656,2.816,15.552l-89.536,71.84C129.92,290.784,121.312,288,112,288    c-26.464,0-48,21.536-48,48s21.536,48,48,48s48-21.536,48-48c0-5.472-1.12-10.656-2.816-15.584l89.536-71.776    c7.36,4.576,15.968,7.36,25.28,7.36c26.464,0,48-21.536,48-48c0-2.048-0.352-3.968-0.608-5.952l79.488-39.488    C407.488,170.848,419.136,176,432,176c26.464,0,48-21.536,48-48S458.464,80,432,80z" fill="#FFFFFF"/>
	</g>
</g>
<g>
	<g>
		<path d="M496,480h-48V224c0-8.832-7.168-16-16-16c-8.832,0-16,7.168-16,16v256H288V304c0-8.832-7.168-16-16-16    c-8.832,0-16,7.168-16,16v176H128v-48c0-8.832-7.168-16-16-16c-8.832,0-16,7.168-16,16v48H32V16c0-8.832-7.168-16-16-16    C7.168,0,0,7.168,0,16v464c0,17.664,14.368,32,32,32h464c8.832,0,16-7.168,16-16C512,487.168,504.832,480,496,480z" fill="#FFFFFF"/>
	</g>
</g>
<g>
</g>
<g>
</g>
<g>
</g>
<g>
</g>
<g>
</g>
<g>
</g>
<g>
</g>
<g>
</g>
<g>
</g>
<g>
</g>
<g>
</g>
<g>
</g>
<g>
</g>
<g>
</g>
<g>
</g>
</svg>
